<?xml version="1.0" encoding="utf-8"?>
<!-- Generator: Adobe Illustrator 22.1.0, SVG Export Plug-In . SVG Version: 6.00 Build 0)  -->
<svg version="1.1" id="Layer_1" xmlns="http://www.w3.org/2000/svg" xmlns:xlink="http://www.w3.org/1999/xlink" x="0px" y="0px"
	 viewBox="0 0 2592 1728" style="enable-background:new 0 0 2592 1728;" xml:space="preserve">
<style type="text/css">
	.st0{font-family:'Broadway';}
	.st1{font-size:283.5px;}
	.st2{clip-path:url(#SVGID_2_);}
	.st3{clip-path:url(#SVGID_4_);}
	.st4{clip-path:url(#SVGID_6_);}
	.st5{clip-path:url(#SVGID_8_);}
	.st6{fill:#FFFFFF;}
	.st7{clip-path:url(#SVGID_10_);}
	.st8{clip-path:url(#SVGID_12_);}
	.st9{clip-path:url(#SVGID_14_);}
	.st10{clip-path:url(#SVGID_16_);}
	.st11{clip-path:url(#SVGID_18_);}
	.st12{clip-path:url(#SVGID_20_);}
	.st13{clip-path:url(#SVGID_22_);}
	.st14{clip-path:url(#SVGID_24_);}
	.st15{clip-path:url(#SVGID_26_);}
	.st16{clip-path:url(#SVGID_28_);}
</style>
<text transform="matrix(1 0 0 1 427.9565 1251.1576)"><tspan x="0" y="0" class="st0 st1">Perfor</tspan><tspan x="965.1" y="0" class="st0 st1">m</tspan><tspan x="1292.6" y="0" class="st0 st1">ers</tspan></text>
<g>
	<g id="s_x5F_2_1_">
		<g>
			<defs>
				<rect id="SVGID_1_" x="1983" y="583.7" width="187.6" height="377"/>
			</defs>
			<clipPath id="SVGID_2_">
				<use xlink:href="#SVGID_1_"  style="overflow:visible;"/>
			</clipPath>
			<g class="st2">
				<defs>
					<rect id="SVGID_3_" x="1983" y="583.7" width="187.6" height="377"/>
				</defs>
				<clipPath id="SVGID_4_">
					<use xlink:href="#SVGID_3_"  style="overflow:visible;"/>
				</clipPath>
				<path class="st3" d="M2004.4,883c-0.4,3.4-0.9,6.7-1.2,10.1c-2.3,22.6,7.4,36.9,29.6,41.5c23,4.8,45.8,2.2,67-8
					c21.4-10.2,32.5-28.6,34.1-51.8c2.8-40.9-10.5-76.1-40.9-104c-11.4-10.4-23.8-19.7-35.8-29.5c-16.9-13.8-30.4-30-36.5-51.5
					c-6.2-21.5-2.6-41.5,10.8-59.1c24-31.5,57.1-45.2,95.8-47c4.9-0.2,10.1,1.2,14.7,2.9c3.1,1.1,7.3,3.6,8.1,6.4
					c3.5,12.1,9.5,24.3,4.3,37.2c-3.8,9.5-8.5,18.6-12.8,27.9c-0.9-0.3-1.9-0.6-2.8-0.9c0-1.8-0.1-3.7,0-5.5c0.2-3,0.7-5.9,0.9-8.9
					c0.9-24.5-11.6-37-35.9-35c-23,1.9-42.8,10.6-51.2,33.8c-8.5,23.5-5.5,46.1,12.9,64.3c11.1,11.1,23.7,20.7,35.6,31
					c9.7,8.3,19.5,16.5,29.1,25c31.9,28.6,43.6,64.7,39.9,106.7c-4.1,46.2-28.1,73.9-73.4,84.4c-22.7,5.3-45.5,9.2-68.8,7
					c-8.2-0.8-16.5-2.6-24.1-5.6c-13.8-5.5-20.9-16.3-20.5-31.4C1983.5,906.7,1990.6,893.3,2004.4,883"/>
			</g>
		</g>
	</g>
	<g id="e_x5F_1_1_">
		<g>
			<defs>
				<rect id="SVGID_5_" x="865.1" y="615.3" width="174.7" height="358.5"/>
			</defs>
			<clipPath id="SVGID_6_">
				<use xlink:href="#SVGID_5_"  style="overflow:visible;"/>
			</clipPath>
			<g class="st4">
				<defs>
					<rect id="SVGID_7_" x="865.1" y="615.3" width="174.7" height="358.5"/>
				</defs>
				<clipPath id="SVGID_8_">
					<use xlink:href="#SVGID_7_"  style="overflow:visible;"/>
				</clipPath>
				<path class="st5" d="M963.9,973.8c-16-10.2-30.4-22.3-43.3-36.3c-57.5-62.7-72.4-161.4-35.2-237c20.5-41.5,53.8-69.2,97.5-83.2
					c9.6-3.1,21.3-2.1,31.5-0.1c14.9,3,24.2,15.3,25.1,30.9c2.2,40.8-15.6,71.6-48.9,93.9c-20,13.4-42.8,20.1-66,25.7
					c-1.4,0.3-2.9,0-4.9-1.5c3-1.4,5.9-2.9,8.9-4.2c25.1-10.9,46.2-26.8,61.7-49.5c9.4-13.8,16.5-28.6,17.3-46
					c0.8-17.3-13.5-31.8-35.4-24c-13.8,4.9-23.2,15.3-30.3,27.7c-14.3,25.3-22.7,53-28.6,81.2c-4.3,20.5-8,41.5-8.9,62.5
					c-2.1,47.5,15.5,89.5,40.2,128.9c6.4,10.2,13.8,19.8,20.8,29.6L963.9,973.8z"/>
			</g>
		</g>
	</g>
	<g>
		<g>
			<path class="st6" d="M443,911c0-129.3,0-258.7,0-388c104.7,0,209.3,0,314,0c-0.5,0.3-1,0.9-1.5,0.9c-8.4,0.7-16.8,0.7-25.1,2.2
				c-16,2.9-32.2,5.4-47.7,10.3c-19.9,6.3-38.5,15.8-55.1,29.1c-17.5,14-27.7,31.7-29.5,53.9c-1.4,17.4,3.9,33.2,12.9,48
				c10.1,16.7,24.8,29.5,37.9,43.6c17.4,18.9,37.4,35.4,52.8,56.1c14.5,19.4,22.4,41.4,23.1,65.5c0.3,10.9-1.2,22-2.9,32.8
				c-3.4,22.2-14.8,40.3-31.7,54.5c-20.2,17-44.5,23.6-70.3,24.8c-22.9,1-45.8,0.1-68.5-4.8c-18.3-4-36-9.5-51.5-20.2
				c-8.1-5.6-12.8-13.8-13-24.2c-0.2-8.9,2.6-16.7,6.4-24.4c1.8-3.7,3.4-7.5,5.5-12.2c-15.7,3.8-27.5,11.7-38,21.7
				C452.1,889.1,446.1,899.3,443,911z"/>
			<path class="st6" d="M859,562c0,138,0,276,0,414c-75.7,0-151.3,0-227,0c1-0.3,2-0.9,3-1c5.4-0.4,10.9-0.6,16.3-1
				c18.8-1.4,37.1-5.3,54.7-12.1c24.7-9.5,45.4-24.6,59.7-46.8c17.6-27.5,27.5-57.5,25.3-90.8c-0.9-13.5-5-25.9-11-37.8
				c-9.6-19.1-23.1-35.4-37.8-50.6c-24.3-25.3-48.9-50.2-73.2-75.5c-3.7-3.9-7.1-8.3-9.7-12.9c-6.7-11.8-7.7-24.6-5.1-37.6
				c1.3-6.5,3.4-13,6.5-18.8c7.3-13.9,19.3-23.1,33.1-29.9c20.9-10.3,43-14.3,66.3-11.3c13.2,1.7,26.2,4.1,38.3,9.3
				c12.7,5.4,20.3,14.8,19.3,29.8c-0.5,6.8-3.5,13.5-5.8,20c-1.6,4.5-4.2,8.8-6.9,14.4c2.7-0.6,4.3-0.6,5.6-1.3
				c17.2-8.8,31.3-21.1,40.3-38.4C854.4,576.8,856.4,569.2,859,562z"/>
			<path d="M859,562c-2.6,7.2-4.6,14.8-8.1,21.6c-9,17.3-23,29.6-40.3,38.4c-1.3,0.7-2.9,0.7-5.6,1.3c2.7-5.6,5.3-9.8,6.9-14.4
				c2.4-6.5,5.4-13.2,5.8-20c1-15-6.6-24.4-19.3-29.8c-12.2-5.2-25.1-7.6-38.3-9.3c-23.4-3-45.4,1-66.3,11.3
				c-13.7,6.8-25.8,16-33.1,29.9c-3.1,5.8-5.1,12.4-6.5,18.8c-2.7,13-1.7,25.9,5.1,37.6c2.7,4.6,6,9,9.7,12.9
				c24.3,25.2,49,50.2,73.2,75.5c14.7,15.3,28.2,31.6,37.8,50.6c6,11.9,10.1,24.3,11,37.8c2.2,33.3-7.7,63.4-25.3,90.8
				c-14.3,22.3-35,37.3-59.7,46.8c-17.6,6.8-35.9,10.7-54.7,12.1c-5.4,0.4-10.9,0.6-16.3,1c-1,0.1-2,0.6-3,1c-9,0-18,0-27,0
				c-0.5-0.3-1-0.9-1.5-0.9c-17.3-1.1-34.6-1.6-51.8-3.2c-13.6-1.3-27.2-3.4-40.6-6c-15.7-3-30.9-8.2-44.7-16.4
				c-6.2-3.7-11.9-8.6-16.8-13.8c-3.1-3.4-4.4-8.4-6.6-12.7c0-4,0-8,0-12c3.1-11.7,9.1-21.9,17.9-30.2c10.5-10,22.3-17.9,38-21.7
				c-2.1,4.7-3.7,8.5-5.5,12.2c-3.8,7.7-6.6,15.5-6.4,24.4c0.2,10.4,4.9,18.6,13,24.2c15.5,10.7,33.2,16.3,51.5,20.2
				c22.6,4.9,45.5,5.8,68.5,4.8c25.8-1.2,50.2-7.8,70.3-24.8c16.9-14.3,28.3-32.3,31.7-54.5c1.7-10.9,3.2-21.9,2.9-32.8
				c-0.7-24.1-8.6-46.1-23.1-65.5c-15.5-20.7-35.4-37.2-52.8-56.1c-13-14.1-27.8-26.9-37.9-43.6c-8.9-14.8-14.3-30.6-12.9-48
				c1.8-22.2,12-39.9,29.5-53.9c16.6-13.3,35.2-22.8,55.1-29.1c15.4-4.9,31.7-7.4,47.7-10.3c8.2-1.5,16.7-1.5,25.1-2.2
				c0.5,0,1-0.6,1.5-0.9c13.3,0,26.7,0,40,0c7.8,1.3,15.6,2.6,23.3,4c10,1.9,19.4,5.8,27.7,11.7c6.5,4.6,9.6,11.6,11,19.3
				C859,559.3,859,560.7,859,562z"/>
			<path class="st6" d="M443,923c2.1,4.3,3.4,9.3,6.6,12.7c4.9,5.3,10.6,10.1,16.8,13.8c13.8,8.2,29,13.3,44.7,16.4
				c13.4,2.6,27,4.7,40.6,6c17.2,1.6,34.5,2.2,51.8,3.2c0.5,0,1,0.6,1.5,0.9c-54,0-108,0-162,0C443,958.3,443,940.6,443,923z"/>
			<path class="st6" d="M859,558c-1.3-7.8-4.4-14.7-11-19.3c-8.3-5.8-17.6-9.8-27.7-11.7c-7.8-1.5-15.6-2.7-23.3-4
				c20.7,0,41.3,0,62,0C859,534.7,859,546.3,859,558z"/>
		</g>
	</g>
	<g id="a_1_">
		<g>
			<defs>
				<rect id="SVGID_9_" x="1066.4" y="616.2" width="187.8" height="343"/>
			</defs>
			<clipPath id="SVGID_10_">
				<use xlink:href="#SVGID_9_"  style="overflow:visible;"/>
			</clipPath>
			<g class="st7">
				<defs>
					<rect id="SVGID_11_" x="1066.4" y="616.2" width="187.8" height="343"/>
				</defs>
				<clipPath id="SVGID_12_">
					<use xlink:href="#SVGID_11_"  style="overflow:visible;"/>
				</clipPath>
				<path class="st8" d="M1181,764.4c-2.1,1.9-4.2,3.8-6.4,5.6c-30.3,25.7-53.8,56.2-66,94.4c-5,15.7-7.5,31.8-2.3,48.2
					c4.8,15.2,14.8,24.8,30.3,28.4c13.8,3.2,24.1-3.8,33-13.2c13.3-14.2,21.1-31.7,26.5-50c13.8-46.8,21.7-94.5,13.6-143.4
					c-5.4-32.7-17.4-62.4-43.9-84.2c-3.8-3.2-8.3-5.8-12.9-7.7c-11.8-5.1-21,1.8-20,14.6c0.4,4.9,1.6,9.8,2.4,14.7
					c-9.3,0.9-18.3-4.9-22.5-14.1c-4.1-8.7-2.3-21,5.6-26.9c6.3-4.6,13.8-8.3,21.3-10.5c18-5.2,36.3-6.2,54.3,0.6
					c2.7,1,5.6,2.4,7.6,4.4c23,23.3,43.2,48.2,49.1,81.9c4.6,26.4,4.7,52.7,0.4,79c-5.8,35.4-16.2,69.4-33.6,101
					c-13,23.8-29.1,44.9-52.9,59c-13.4,8-27.9,13.3-43.9,12.9c-22.2-0.5-38.8-10.6-46.2-31.5c-13.4-37.9-11.6-74.2,16.3-106.1
					c24.3-27.7,55.4-44.9,88.5-59.2C1179.8,763,1180.4,763.7,1181,764.4"/>
			</g>
		</g>
	</g>
	<g id="tt_x5F_Space_x5F_Needle_1_">
		<g>
			<defs>
				<rect id="SVGID_13_" x="1204.8" y="310.4" width="372.5" height="720.3"/>
			</defs>
			<clipPath id="SVGID_14_">
				<use xlink:href="#SVGID_13_"  style="overflow:visible;"/>
			</clipPath>
			<g class="st9">
				<defs>
					<rect id="SVGID_15_" x="1204.8" y="310.4" width="372.5" height="720.3"/>
				</defs>
				<clipPath id="SVGID_16_">
					<use xlink:href="#SVGID_15_"  style="overflow:visible;"/>
				</clipPath>
				<path class="st10" d="M1517.9,1026c-14.2-4.7-26.5-8.5-38.5-13.1c-2.2-0.9-3.9-5.1-4.4-8.1c-3.5-19.3-7.6-38.5-9.6-58
					c-15.5-148.9-19.1-298.3-16.7-447.9c0.4-21.9,2-20.6-19.1-18c-2.1,0.3-4.2,0.4-6.2,0.4c-5.3,0-7.7,2.3-8.5,7.9
					c-6.5,46.8-12.2,93.7-20.2,140.3c-12.1,70.6-29,140.2-49.1,209c-17.1,58.5-37.1,115.9-59.9,172.4c-2.6,6.5-6.3,10.1-13.1,11.7
					c-10.8,2.6-21.4,6-32.8,8.2c77.1-175.1,123.3-358.7,162.9-545.8c-4.2-0.3-7-1-9.7-0.7c-34.8,4.1-69.6,8.7-102.5,21.8
					c-9.5,3.8-18.8,9.2-26.5,15.9c-13.4,11.7-11.9,24.1,4.1,31.3c14.5,6.6,30.2,10.4,45.4,15.4c3.3,1.1,6.7,1.8,10,2.7
					c-0.1,0.7-0.2,1.5-0.2,2.2c-3.3-0.2-6.6-0.2-9.8-0.8c-27.2-4.8-54.4-9.4-81.4-14.8c-6.5-1.3-12.8-4.9-18.4-8.6
					c-10.7-7.2-11.6-18.7-2.8-28.2c11.5-12.4,26.8-18.4,42.2-24c31.1-11.4,63.4-17.8,96-22.8c16.7-2.6,33.6-4.3,50.4-6
					c5.3-0.5,7-3.2,7.8-7.8c3.7-21.4,7.7-42.7,11.5-64c0.7-3.9,1.6-7.8,2.4-11.7c0.8,0.1,1.6,0.2,2.3,0.2c0,3.6,0.3,7.3,0,10.9
					c-1.7,20.1-3.5,40.3-5.2,60.4c-0.8,9.7,0,10.5,9.3,10c21.8-1,21.3-1,22.6-23c2.5-41.2,5.7-82.4,8.7-123.6
					c0.2-3.1,1.1-6.2,1.6-9.2c0.7,0,1.5,0.1,2.2,0.1c0,7.9-0.1,15.7,0,23.6c0.5,39.8,1,79.7,1.5,119.5c0.2,11.4,0.7,11.4,12.3,12
					c31.4,1.7,62.9,3.8,94.3,5.8c2.2,0.1,4.3,1,6.4,3.3c-3.1,0.1-6.1,0.3-9.2,0.4c-31.2,0.9-62.4,1.9-93.6,2.5
					c-7.6,0.1-9.4,3.3-9.1,10.4c3.5,82,5.5,164,10.6,245.9c3.1,49.7,10.5,99.2,17.2,148.6c5.4,39.4,12.6,78.6,19.2,117.8
					C1513.7,1008,1515.6,1015.5,1517.9,1026"/>
			</g>
		</g>
	</g>
	<g id="l_1_">
		<g>
			<defs>
				<rect id="SVGID_17_" x="1593" y="310.2" width="105.8" height="719.6"/>
			</defs>
			<clipPath id="SVGID_18_">
				<use xlink:href="#SVGID_17_"  style="overflow:visible;"/>
			</clipPath>
			<g class="st11">
				<defs>
					<rect id="SVGID_19_" x="1593" y="310.2" width="105.8" height="719.6"/>
				</defs>
				<clipPath id="SVGID_20_">
					<use xlink:href="#SVGID_19_"  style="overflow:visible;"/>
				</clipPath>
				<path class="st12" d="M1698.9,310.2c-0.8,10-1.4,18.3-2.1,26.5c-7.4,79.4-19,158.1-36.7,235.9c-16.8,73.3-31.9,147-35.4,222.4
					c-3.3,71.2-0.6,142,12.4,212.2c1.3,7.2,2.9,14.4,4.3,21.6c-0.6,0.3-1.3,0.7-1.9,1c-1.8-3-3.8-5.8-5.3-8.9
					c-15.6-33-25.5-67.8-31.6-103.7c-11.4-67.6-11.6-135.5-5.5-203.5c6.3-69.9,18-139,30.7-208c9.4-51.2,16.4-102.7,13.4-155
					c-0.1-0.9-0.1-1.8-0.1-2.7c-1-16-1-16,13.8-21.6c11.7-4.4,23.3-9,35-13.4C1692.2,312.1,1694.7,311.5,1698.9,310.2"/>
			</g>
		</g>
	</g>
	<g id="e_x5F_2_1_">
		<g>
			<defs>
				<rect id="SVGID_21_" x="1693.3" y="584.8" width="263.7" height="395.1"/>
			</defs>
			<clipPath id="SVGID_22_">
				<use xlink:href="#SVGID_21_"  style="overflow:visible;"/>
			</clipPath>
			<g class="st13">
				<defs>
					<rect id="SVGID_23_" x="1693.3" y="584.8" width="263.7" height="395.1"/>
				</defs>
				<clipPath id="SVGID_24_">
					<use xlink:href="#SVGID_23_"  style="overflow:visible;"/>
				</clipPath>
				<path class="st14" d="M1755.3,772.2c5.4-3,10.9-5.9,16.3-8.9c23.4-13.2,43.9-29.7,58.4-52.5c11.7-18.4,18.2-38.7,17-60.8
					c-0.3-4.7-1.1-9.5-2.6-13.9c-5.1-15.9-21-28.6-41.5-14.2c-22.2,15.7-35.5,38-45.1,62.7c-8.3,21.5-12.2,43.9-12.6,67
					c-0.6,37.6,0.8,74.8,12.7,110.9c12.5,37.9,33.1,69.4,72.5,83.8c45.3,16.6,87.5,10.7,119.7-29.2c1.6-2,3.1-4.2,4.6-6.2
					c0.8,0.6,1.7,1.3,2.5,1.9c-2.9,5-5.6,10-8.6,14.9c-32.7,52.4-79,62.8-132.5,42.5c-49.3-18.7-81.7-55.2-101.5-103
					c-17.1-41.2-24.4-84.4-19.6-129.1c3.8-35.3,20.5-64.8,43.2-91.3c17.9-20.9,38.9-38.4,63.1-51.7c16.1-8.8,33.5-12,51.7-9.6
					c22,2.8,34.9,14.9,36.4,37.1c2.4,34.5-6.4,66-30,92.3c-20.7,23.1-47.1,37.8-75.2,49.8c-9.1,3.9-18.6,6.9-27.9,10.3
					C1755.8,774.1,1755.5,773.2,1755.3,772.2"/>
			</g>
		</g>
	</g>
	<g id="apostrophe_1_">
		<g>
			<defs>
				<rect id="SVGID_25_" x="1933.8" y="549.4" width="60.9" height="77.1"/>
			</defs>
			<clipPath id="SVGID_26_">
				<use xlink:href="#SVGID_25_"  style="overflow:visible;"/>
			</clipPath>
			<g class="st15">
				<defs>
					<rect id="SVGID_27_" x="1933.8" y="549.4" width="60.9" height="77.1"/>
				</defs>
				<clipPath id="SVGID_28_">
					<use xlink:href="#SVGID_27_"  style="overflow:visible;"/>
				</clipPath>
				<path class="st16" d="M1947.3,626.5c4-3.3,6.7-5.4,9.3-7.7c14.4-12.7,15.1-27.7,0.9-40.6c-7.1-6.5-15.7-11.4-23.7-17
					c4.5-13.3,6-14.3,17.7-8c10.7,5.8,21.5,11.6,30.9,19.2c16.9,13.7,16.1,29.1-0.8,43.4C1974.7,621.6,1959.4,626.7,1947.3,626.5"/>
			</g>
		</g>
	</g>
</g>
</svg>
