<?xml version="1.0" encoding="utf-8"?>
<!-- Generator: Adobe Illustrator 22.1.0, SVG Export Plug-In . SVG Version: 6.00 Build 0)  -->
<svg version="1.1" xmlns="http://www.w3.org/2000/svg" xmlns:xlink="http://www.w3.org/1999/xlink" x="0px" y="0px"
	 viewBox="0 0 2592 1728" style="enable-background:new 0 0 2592 1728;" xml:space="preserve">
<style type="text/css">
	.st0{font-family:'Broadway';}
	.st1{font-size:306.18px;}
	.st2{clip-path:url(#SVGID_2_);}
	.st3{clip-path:url(#SVGID_4_);}
	.st4{clip-path:url(#SVGID_6_);}
	.st5{clip-path:url(#SVGID_8_);}
	.st6{fill:#FFFFFF;}
	.st7{clip-path:url(#SVGID_10_);}
	.st8{clip-path:url(#SVGID_12_);}
	.st9{clip-path:url(#SVGID_14_);}
	.st10{clip-path:url(#SVGID_16_);}
	.st11{clip-path:url(#SVGID_18_);}
	.st12{clip-path:url(#SVGID_20_);}
	.st13{clip-path:url(#SVGID_22_);}
	.st14{clip-path:url(#SVGID_24_);}
	.st15{clip-path:url(#SVGID_26_);}
	.st16{clip-path:url(#SVGID_28_);}
	.st17{clip-path:url(#SVGID_30_);}
	.st18{clip-path:url(#SVGID_32_);}
	.st19{clip-path:url(#SVGID_32_);fill:none;stroke:#000000;stroke-width:2.2368;stroke-miterlimit:10;}
	.st20{clip-path:url(#SVGID_34_);}
	.st21{clip-path:url(#SVGID_36_);}
	.st22{clip-path:url(#SVGID_36_);fill:none;stroke:#000000;stroke-width:2.2368;stroke-miterlimit:10;}
	.st23{fill:none;stroke:#000000;stroke-width:30;stroke-miterlimit:10;}
	.st24{clip-path:url(#SVGID_38_);}
	.st25{clip-path:url(#SVGID_40_);}
	.st26{clip-path:url(#SVGID_42_);}
	.st27{clip-path:url(#SVGID_44_);fill:#000001;}
</style>
<g id="Text:_Seattle_x27_s_Performers">
	<text transform="matrix(1 0 0 1 340.4468 1340.5322)"><tspan x="0" y="0" class="st0 st1">Perfor</tspan><tspan x="1042.3" y="0" class="st0 st1">m</tspan><tspan x="1396" y="0" class="st0 st1">ers</tspan></text>
	<g>
		<g id="s_x5F_2_1_">
			<g>
				<defs>
					<rect id="SVGID_1_" x="2006.4" y="565.2" width="202.6" height="407.2"/>
				</defs>
				<clipPath id="SVGID_2_">
					<use xlink:href="#SVGID_1_"  style="overflow:visible;"/>
				</clipPath>
				<g class="st2">
					<defs>
						<rect id="SVGID_3_" x="2006.4" y="565.2" width="202.6" height="407.2"/>
					</defs>
					<clipPath id="SVGID_4_">
						<use xlink:href="#SVGID_3_"  style="overflow:visible;"/>
					</clipPath>
					<path class="st3" d="M2029.5,888.4c-0.4,3.6-1,7.3-1.3,10.9c-2.4,24.5,8,39.9,31.9,44.9c24.9,5.2,49.5,2.4,72.4-8.6
						c23.1-11,35.1-30.8,36.8-56c3-44.2-11.3-82.2-44.2-112.3c-12.3-11.3-25.7-21.2-38.6-31.8c-18.2-14.9-32.8-32.4-39.5-55.6
						c-6.7-23.3-2.8-44.8,11.6-63.8c25.9-34,61.7-48.9,103.5-50.8c5.3-0.2,10.9,1.3,15.9,3.1c3.4,1.2,7.9,3.9,8.7,6.9
						c3.8,13.1,10.2,26.2,4.6,40.2c-4.1,10.3-9.2,20.1-13.8,30.1c-1-0.3-2-0.6-3-0.9c0-2-0.1-3.9,0-5.9c0.2-3.2,0.8-6.4,0.9-9.6
						c1-26.4-12.5-40-38.8-37.8c-24.8,2.1-46.2,11.4-55.3,36.5c-9.2,25.4-5.9,49.8,14,69.5c12,11.9,25.6,22.4,38.5,33.4
						c10.5,9,21.1,17.8,31.4,27c34.5,30.8,47.1,69.9,43.1,115.2c-4.4,49.9-30.3,79.8-79.3,91.1c-24.5,5.7-49.2,9.9-74.4,7.6
						c-8.8-0.8-17.9-2.8-26.1-6.1c-14.9-5.9-22.6-17.6-22.1-33.9C2007,914,2014.6,899.5,2029.5,888.4"/>
				</g>
			</g>
		</g>
		<g id="e_x5F_1_1_">
			<g>
				<defs>
					<rect id="SVGID_5_" x="799.1" y="599.2" width="188.6" height="387.2"/>
				</defs>
				<clipPath id="SVGID_6_">
					<use xlink:href="#SVGID_5_"  style="overflow:visible;"/>
				</clipPath>
				<g class="st4">
					<defs>
						<rect id="SVGID_7_" x="799.1" y="599.2" width="188.6" height="387.2"/>
					</defs>
					<clipPath id="SVGID_8_">
						<use xlink:href="#SVGID_7_"  style="overflow:visible;"/>
					</clipPath>
					<path class="st5" d="M905.9,986.5c-17.3-11-32.9-24.1-46.8-39.2c-62.1-67.7-78.2-174.3-38-256c22.1-44.8,58.1-74.7,105.4-89.9
						c10.3-3.3,23-2.3,34-0.1c16.1,3.2,26.2,16.5,27.1,33.3c2.4,44.1-16.8,77.3-52.9,101.4c-21.7,14.5-46.3,21.8-71.3,27.7
						c-1.5,0.3-3.1,0-5.3-1.6c3.2-1.5,6.4-3.1,9.6-4.5c27.1-11.7,49.9-28.9,66.7-53.4c10.2-14.9,17.8-30.9,18.6-49.7
						c0.8-18.7-14.5-34.3-38.2-25.9c-14.9,5.3-25.1,16.5-32.7,29.9c-15.5,27.4-24.5,57.2-30.9,87.7c-4.7,22.2-8.6,44.9-9.6,67.4
						c-2.3,51.3,16.7,96.7,43.5,139.2c6.9,11,14.9,21.3,22.5,32L905.9,986.5z"/>
				</g>
			</g>
		</g>
		<g>
			<g>
				<g>
					<g>
						<path class="st6" d="M343,920c0-140.2,0-280.5,0-421c117.3,0,234.7,0,352,0c-1.5,0.3-3,0.9-4.5,1c-14,1.1-28,1.4-41.9,3.2
							c-19.7,2.6-39.1,7.3-57.5,14.9c-21.7,9-42.5,19.7-58.9,37.2c-20.5,21.9-25.5,47.7-18.3,76.2c4,15.9,13,29.3,23.6,41.3
							c11.9,13.5,24.8,26.3,37.2,39.4c15.8,16.7,32.4,32.8,47.1,50.5c17.5,21.2,25.1,46.8,26,74c0.3,9.9-1.5,19.9-2.8,29.9
							c-2.7,20.7-12.1,38.5-26,53.7c-11.5,12.5-25.7,21.2-41.8,26.7c-24.5,8.3-49.7,10.5-75.3,7.9c-13.7-1.4-27.4-2.7-40.9-5.1
							c-20.9-3.6-40.8-10.4-58.1-23c-8.9-6.5-13.4-16.3-12.4-27c0.7-8,4.4-15.9,7.1-23.7c1.5-4.3,3.8-8.4,6.1-13.6
							c-2.4,0.5-3.6,0.7-4.8,1.1c-11.2,3.6-21,9.6-30.1,17c-9.1,7.4-16.4,16.1-21.3,26.7C345.5,911.4,344.4,915.8,343,920z"/>
					</g>
					<g>
						<path class="st6" d="M792,545c0,147.7,0,295.3,0,443c-77,0-154,0-231,0c0.7-0.3,1.3-0.9,2-1c8.1-1,16.3-1.8,24.4-3
							c21.5-3.2,41.8-9.7,60.7-20.6c17.1-9.8,31.2-22.8,42.5-38.8c11.1-15.6,18.2-33.2,23.1-51.5c4.6-17.1,8-34.6,5.2-52.5
							c-2.8-17.8-9.6-34.1-19.1-49.4c-11.9-19.2-27.5-35.2-42.8-51.5c-6.6-7-14-13.2-20.8-20c-7.3-7.3-14.2-14.8-21.4-22.3
							c-7.5-7.8-15-15.5-22.3-23.4c-4.8-5.2-9.6-10.4-13.6-16.3c-8.1-12-9.9-25.4-8.3-39.8c2.4-21.1,12.3-37.4,29.7-49.1
							c23.4-15.6,49-23.1,77.4-21.1c15.8,1.1,31.1,4.2,45.9,9.3c20,6.9,28.8,24.7,22,44.7c-2.9,8.4-7,16.4-10.6,24.6
							c0.2,0.4,0.3,0.8,0.5,1.2c3.1-1.3,6.5-2.2,9.3-3.8c14.6-8.4,27.3-19.1,35.7-33.8C785.3,562.2,788.3,553.4,792,545z"/>
					</g>
					<g>
						<path d="M792,545c-3.7,8.4-6.7,17.2-11.2,25.1c-8.4,14.7-21.1,25.4-35.7,33.8c-2.9,1.7-6.2,2.6-9.3,3.8
							c-0.2-0.4-0.3-0.8-0.5-1.2c3.6-8.2,7.7-16.2,10.6-24.6c6.9-20-1.9-37.9-22-44.7c-14.9-5.1-30.1-8.2-45.9-9.3
							c-28.4-2-54,5.5-77.4,21.1c-17.4,11.6-27.3,27.9-29.7,49.1c-1.7,14.4,0.2,27.8,8.3,39.8c3.9,5.8,8.8,11.1,13.6,16.3
							c7.3,7.9,14.9,15.6,22.3,23.4c7.1,7.4,14.1,15,21.4,22.3c6.8,6.8,14.2,13,20.8,20c15.3,16.3,30.9,32.4,42.8,51.5
							c9.5,15.3,16.3,31.5,19.1,49.4c2.8,17.9-0.6,35.3-5.2,52.5c-4.9,18.3-12.1,35.9-23.1,51.5c-11.3,16-25.5,29-42.5,38.8
							c-18.9,10.9-39.3,17.4-60.7,20.6c-8.1,1.2-16.3,2-24.4,3c-0.7,0.1-1.4,0.6-2,1c-19.7,0-39.3,0-59,0c-6.6-0.7-13.2-1.3-19.8-2
							c-16.3-1.7-32.6-2.9-48.9-5.1c-23.4-3.1-45.7-10-66.5-21.5c-7.6-4.2-14.2-9.7-18.7-17.1c-2.4-4-3.4-8.9-5.1-13.3c0-3,0-6,0-9
							c1.4-4.2,2.5-8.6,4.4-12.7c4.9-10.6,12.2-19.3,21.3-26.7c9.1-7.4,18.9-13.4,30.1-17c1.2-0.4,2.5-0.5,4.8-1.1
							c-2.3,5.1-4.6,9.2-6.1,13.6c-2.7,7.8-6.4,15.6-7.1,23.7c-0.9,10.7,3.5,20.5,12.4,27c17.3,12.6,37.2,19.5,58.1,23
							c13.5,2.3,27.3,3.7,40.9,5.1c25.6,2.5,50.8,0.3,75.3-7.9c16.1-5.4,30.4-14.2,41.8-26.7c14-15.2,23.3-33,26-53.7
							c1.3-9.9,3.1-19.9,2.8-29.9c-0.9-27.3-8.4-52.9-26-74c-14.7-17.7-31.3-33.7-47.1-50.5c-12.4-13.1-25.3-25.9-37.2-39.4
							c-10.6-12.1-19.6-25.4-23.6-41.3c-7.2-28.5-2.2-54.3,18.3-76.2c16.4-17.5,37.1-28.2,58.9-37.2c18.5-7.6,37.8-12.3,57.5-14.9
							c13.9-1.8,27.9-2.2,41.9-3.2c1.5-0.1,3-0.6,4.5-1c6.7,0,13.3,0,20,0c1,0.3,2,0.8,3,1c12.4,1.7,25.1,2.4,37.3,5.3
							c16.3,3.8,31.3,10.5,36.7,28.8C792,537.7,792,541.3,792,545z"/>
					</g>
					<g>
						<path class="st6" d="M343,929c1.6,4.5,2.6,9.3,5.1,13.3c4.5,7.4,11.2,12.8,18.7,17.1c20.8,11.5,43.1,18.4,66.5,21.5
							c16.2,2.1,32.6,3.4,48.9,5.1c6.6,0.7,13.2,1.3,19.8,2c-52.9,0-105.8,0-159,0C343,968.3,343,948.7,343,929z"/>
					</g>
					<g>
						<path class="st6" d="M792,534c-5.4-18.3-20.4-24.9-36.7-28.8c-12.2-2.9-24.8-3.6-37.3-5.3c-1-0.1-2-0.6-3-1
							c25.7,0,51.3,0,77,0C792,510.7,792,522.3,792,534z"/>
					</g>
				</g>
			</g>
		</g>
		<g id="a_1_">
			<g>
				<defs>
					<rect id="SVGID_9_" x="1016.5" y="600.2" width="202.8" height="370.5"/>
				</defs>
				<clipPath id="SVGID_10_">
					<use xlink:href="#SVGID_9_"  style="overflow:visible;"/>
				</clipPath>
				<g class="st7">
					<defs>
						<rect id="SVGID_11_" x="1016.5" y="600.2" width="202.8" height="370.5"/>
					</defs>
					<clipPath id="SVGID_12_">
						<use xlink:href="#SVGID_11_"  style="overflow:visible;"/>
					</clipPath>
					<path class="st8" d="M1140.3,760.3c-2.3,2-4.6,4.1-6.9,6.1c-32.7,27.8-58.1,60.7-71.3,102c-5.4,17-8.1,34.3-2.5,52
						c5.2,16.5,16,26.8,32.7,30.6c15,3.4,26.1-4.1,35.7-14.3c14.4-15.4,22.8-34.2,28.7-54c14.9-50.6,23.4-102.1,14.7-154.8
						c-5.8-35.3-18.8-67.4-47.4-91c-4.1-3.4-9-6.2-13.9-8.4c-12.7-5.5-22.7,1.9-21.6,15.8c0.4,5.3,1.7,10.6,2.6,15.9
						c-10,0.9-19.7-5.3-24.3-15.2c-4.4-9.4-2.5-22.7,6.1-29c6.8-5,14.9-9,23-11.3c19.4-5.6,39.2-6.7,58.6,0.6c2.9,1.1,6,2.6,8.2,4.8
						c24.8,25.2,46.7,52.1,53,88.5c5,28.5,5,56.9,0.4,85.3c-6.3,38.2-17.5,74.9-36.2,109.1c-14.1,25.7-31.5,48.5-57.1,63.7
						c-14.5,8.6-30.1,14.3-47.4,14c-24-0.5-41.9-11.5-49.9-34c-14.4-40.9-12.6-80.1,17.6-114.6c26.2-30,59.9-48.5,95.6-64
						C1139.1,758.8,1139.7,759.6,1140.3,760.3"/>
				</g>
			</g>
		</g>
		<g id="tt_x5F_Space_x5F_Needle_1_">
			<g>
				<defs>
					<rect id="SVGID_13_" x="1166" y="270" width="402.3" height="777.9"/>
				</defs>
				<clipPath id="SVGID_14_">
					<use xlink:href="#SVGID_13_"  style="overflow:visible;"/>
				</clipPath>
				<g class="st9">
					<defs>
						<rect id="SVGID_15_" x="1166" y="270" width="402.3" height="777.9"/>
					</defs>
					<clipPath id="SVGID_16_">
						<use xlink:href="#SVGID_15_"  style="overflow:visible;"/>
					</clipPath>
					<path class="st10" d="M1504.1,1042.8c-15.3-5.1-28.7-9.2-41.6-14.2c-2.4-0.9-4.2-5.5-4.8-8.7c-3.7-20.8-8.2-41.6-10.4-62.6
						c-16.8-160.8-20.7-322.2-18-483.8c0.4-23.7,2.2-22.2-20.7-19.4c-2.2,0.3-4.5,0.4-6.7,0.4c-5.8,0-8.3,2.5-9.2,8.5
						c-7,50.5-13.2,101.2-21.8,151.5c-13.1,76.3-31.3,151.4-53,225.7c-18.5,63.1-40,125.2-64.7,186.2c-2.8,7-6.8,10.9-14.1,12.7
						c-11.7,2.8-23.1,6.5-35.4,8.9c83.3-189.1,133.1-387.4,176-589.4c-4.5-0.3-7.6-1.1-10.5-0.7c-37.6,4.4-75.2,9.4-110.7,23.5
						c-10.2,4.1-20.3,10-28.6,17.2c-14.5,12.6-12.9,26,4.4,33.9c15.7,7.1,32.6,11.3,49.1,16.6c3.5,1.2,7.2,1.9,10.8,2.9
						c-0.1,0.8-0.2,1.6-0.3,2.4c-3.5-0.3-7.1-0.2-10.6-0.8c-29.3-5.2-58.7-10.1-87.9-16c-7-1.4-13.8-5.3-19.9-9.3
						c-11.6-7.8-12.5-20.2-3-30.5c12.5-13.4,29-19.9,45.6-25.9c33.6-12.3,68.5-19.2,103.7-24.6c18.1-2.8,36.3-4.7,54.4-6.5
						c5.7-0.6,7.5-3.4,8.4-8.4c4-23.1,8.3-46.1,12.5-69.2c0.8-4.2,1.7-8.4,2.6-12.7c0.8,0.1,1.7,0.2,2.5,0.3c0,3.9,0.3,7.9,0,11.8
						c-1.8,21.7-3.8,43.5-5.6,65.2c-0.9,10.4,0,11.3,10.1,10.9c23.5-1,23-1.1,24.4-24.9c2.7-44.5,6.2-89,9.4-133.5
						c0.2-3.4,1.2-6.7,1.8-10c0.8,0.1,1.6,0.1,2.4,0.2c0,8.5-0.1,17,0,25.4c0.5,43,1.1,86,1.7,129c0.2,12.3,0.8,12.3,13.3,13
						c34,1.8,67.9,4.1,101.8,6.3c2.4,0.2,4.7,1.1,6.9,3.6c-3.3,0.2-6.6,0.4-9.9,0.5c-33.7,1-67.4,2.1-101.1,2.7
						c-8.2,0.2-10.2,3.5-9.9,11.3c3.8,88.5,5.9,177.1,11.5,265.5c3.4,53.7,11.3,107.1,18.6,160.5c5.8,42.6,13.6,84.8,20.7,127.2
						C1499.6,1023.4,1501.7,1031.5,1504.1,1042.8"/>
				</g>
			</g>
		</g>
		<g id="l_1_">
			<g>
				<defs>
					<rect id="SVGID_17_" x="1585.3" y="269.8" width="114.3" height="777.2"/>
				</defs>
				<clipPath id="SVGID_18_">
					<use xlink:href="#SVGID_17_"  style="overflow:visible;"/>
				</clipPath>
				<g class="st11">
					<defs>
						<rect id="SVGID_19_" x="1585.3" y="269.8" width="114.3" height="777.2"/>
					</defs>
					<clipPath id="SVGID_20_">
						<use xlink:href="#SVGID_19_"  style="overflow:visible;"/>
					</clipPath>
					<path class="st12" d="M1699.6,269.8c-0.9,10.9-1.5,19.7-2.3,28.6c-8,85.7-20.5,170.7-39.7,254.7
						c-18.1,79.2-34.5,158.7-38.2,240.2c-3.5,76.9-0.7,153.4,13.4,229.2c1.4,7.8,3.1,15.6,4.7,23.4c-0.7,0.4-1.4,0.7-2.1,1.1
						c-1.9-3.2-4.1-6.2-5.7-9.6c-16.9-35.6-27.6-73.2-34.1-112c-12.3-73-12.5-146.4-5.9-219.8c6.8-75.5,19.4-150.2,33.1-224.6
						c10.2-55.3,17.8-110.9,14.5-167.4c-0.1-1-0.1-1.9-0.1-2.9c-1.1-17.3-1.1-17.3,14.9-23.4c12.6-4.8,25.2-9.7,37.8-14.4
						C1692.4,271.8,1695.1,271.2,1699.6,269.8"/>
				</g>
			</g>
		</g>
		<g id="e_x5F_2_1_">
			<g>
				<defs>
					<rect id="SVGID_21_" x="1693.6" y="566.3" width="284.8" height="426.7"/>
				</defs>
				<clipPath id="SVGID_22_">
					<use xlink:href="#SVGID_21_"  style="overflow:visible;"/>
				</clipPath>
				<g class="st13">
					<defs>
						<rect id="SVGID_23_" x="1693.6" y="566.3" width="284.8" height="426.7"/>
					</defs>
					<clipPath id="SVGID_24_">
						<use xlink:href="#SVGID_23_"  style="overflow:visible;"/>
					</clipPath>
					<path class="st14" d="M1760.5,768.8c5.9-3.2,11.8-6.3,17.6-9.6c25.2-14.2,47.4-32.1,63-56.7c12.6-19.9,19.7-41.8,18.3-65.7
						c-0.3-5.1-1.2-10.2-2.8-15.1c-5.5-17.2-22.7-30.9-44.8-15.3c-24,16.9-38.4,41.1-48.7,67.8c-9,23.2-13.2,47.4-13.6,72.4
						c-0.7,40.6,0.8,80.8,13.7,119.7c13.5,40.9,35.8,74.9,78.3,90.5c48.9,17.9,94.5,11.6,129.2-31.5c1.7-2.2,3.3-4.5,5-6.7
						c0.9,0.7,1.8,1.4,2.7,2c-3.1,5.4-6,10.8-9.3,16.1c-35.3,56.6-85.3,67.8-143.1,45.9c-53.2-20.2-88.2-59.6-109.6-111.3
						c-18.5-44.5-26.3-91.2-21.2-139.4c4.1-38.1,22.2-70,46.6-98.6c19.4-22.6,42-41.5,68.2-55.8c17.4-9.5,36.2-12.9,55.9-10.4
						c23.7,3,37.6,16.1,39.3,40.1c2.6,37.3-6.9,71.3-32.4,99.7c-22.4,24.9-50.9,40.9-81.2,53.8c-9.9,4.2-20.1,7.5-30.2,11.2
						C1761.1,770.8,1760.8,769.8,1760.5,768.8"/>
				</g>
			</g>
		</g>
		<g id="apostrophe_1_">
			<g>
				<defs>
					<rect id="SVGID_25_" x="1953.3" y="528.1" width="65.8" height="83.2"/>
				</defs>
				<clipPath id="SVGID_26_">
					<use xlink:href="#SVGID_25_"  style="overflow:visible;"/>
				</clipPath>
				<g class="st15">
					<defs>
						<rect id="SVGID_27_" x="1953.3" y="528.1" width="65.8" height="83.2"/>
					</defs>
					<clipPath id="SVGID_28_">
						<use xlink:href="#SVGID_27_"  style="overflow:visible;"/>
					</clipPath>
					<path class="st16" d="M1967.9,611.4c4.3-3.6,7.3-5.9,10-8.4c15.5-13.8,16.3-30,1-43.8c-7.7-7-17-12.3-25.6-18.4
						c4.8-14.3,6.5-15.5,19.1-8.6c11.5,6.2,23.3,12.6,33.4,20.8c18.3,14.8,17.4,31.4-0.9,46.8C1997.4,606.1,1981,611.6,1967.9,611.4
						"/>
				</g>
			</g>
		</g>
	</g>
</g>
<g id="Space_x5F_Needles">
	<g id="Space_x5F_Needle_x5F_v._x5F_2.0_2_">
		<g>
			<defs>
				<rect id="SVGID_29_" x="10.2" y="297.6" width="324" height="1392"/>
			</defs>
			<clipPath id="SVGID_30_">
				<use xlink:href="#SVGID_29_"  style="overflow:visible;"/>
			</clipPath>
			<g class="st17">
				<defs>
					<rect id="SVGID_31_" x="10.2" y="297.6" width="324" height="1392"/>
				</defs>
				<clipPath id="SVGID_32_">
					<use xlink:href="#SVGID_31_"  style="overflow:visible;"/>
				</clipPath>
				<path class="st18" d="M153.9,1688.5H12.6c0,0-0.4-16.8,10.1-17.1c10.4-0.4,26.1-105.9,26.1-105.9l11.9-105.1
					c0,0-21.2-8.2-21.2-26.5c0-18.3,25.7-21.6,25.7-21.6l54.4-421.6c0,0,12.3-160.3-4.1-286.7C99.1,577.6,96.1,563.4,96.1,563.4
					s-88-9.7-39.1-19l-3-20.9c0,0-85.4-6-14.5-16.4l20.1-8.6l-2.2-11.2c0,0-10.8-3.7,3.4-7.5c14.2-3.7,65.6-21.2,65.6-21.2
					s11.2-6-1.9-14.9c-13-8.9,8.2-12.3,8.2-12.3l3.4-7.5h24.7l1-14.9l3-1.9l4.8-102.5c0,0-2.2-6,1.9-6h1.6c4.1,0,1.9,6,1.9,6
					l4.8,102.5l3,1.9l1,14.9h24.7l3.4,7.5c0,0,21.2,3.4,8.2,12.3c-13,8.9-1.9,14.9-1.9,14.9s51.4,17.5,65.6,21.2
					c14.2,3.7,3.4,7.5,3.4,7.5l-2.2,11.2l20.1,8.6c70.8,10.4-14.5,16.4-14.5,16.4l-3,20.9c48.8,9.3-39.1,19-39.1,19
					s-3,14.2-19.4,140.5c-16.4,126.4-4.1,286.7-4.1,286.7l54.4,421.6c0,0,25.7,3.4,25.7,21.6c0,18.3-21.2,26.5-21.2,26.5l11.9,105.1
					c0,0,15.7,105.5,26.1,105.9c10.4,0.4,10.1,17.1,10.1,17.1H190.5H153.9z M243.7,1473h-42.5l3,180.4h57.4L243.7,1473z
					 M82.7,1653.4h57.4l3-180.4h-42.5L82.7,1653.4z M221.5,1235.9h-20.3v172.2h36L221.5,1235.9z M107.2,1408.1h36v-172.2h-20.3
					L107.2,1408.1z M201.2,1041.3v177.4h18L201.2,1041.3z M143.2,774.4V568.8h-18L143.2,774.4z M219.2,569.8h-18v205.6L219.2,569.8z
					 M125.1,1218.8h18v-177.4L125.1,1218.8z"/>
				<path class="st19" d="M153.9,1688.5H12.6c0,0-0.4-16.8,10.1-17.1c10.4-0.4,26.1-105.9,26.1-105.9l11.9-105.1
					c0,0-21.2-8.2-21.2-26.5c0-18.3,25.7-21.6,25.7-21.6l54.4-421.6c0,0,12.3-160.3-4.1-286.7C99.1,577.6,96.1,563.4,96.1,563.4
					s-88-9.7-39.1-19l-3-20.9c0,0-85.4-6-14.5-16.4l20.1-8.6l-2.2-11.2c0,0-10.8-3.7,3.4-7.5c14.2-3.7,65.6-21.2,65.6-21.2
					s11.2-6-1.9-14.9c-13-8.9,8.2-12.3,8.2-12.3l3.4-7.5h24.7l1-14.9l3-1.9l4.8-102.5c0,0-2.2-6,1.9-6h1.6c4.1,0,1.9,6,1.9,6
					l4.8,102.5l3,1.9l1,14.9h24.7l3.4,7.5c0,0,21.2,3.4,8.2,12.3c-13,8.9-1.9,14.9-1.9,14.9s51.4,17.5,65.6,21.2
					c14.2,3.7,3.4,7.5,3.4,7.5l-2.2,11.2l20.1,8.6c70.8,10.4-14.5,16.4-14.5,16.4l-3,20.9c48.8,9.3-39.1,19-39.1,19
					s-3,14.2-19.4,140.5c-16.4,126.4-4.1,286.7-4.1,286.7l54.4,421.6c0,0,25.7,3.4,25.7,21.6c0,18.3-21.2,26.5-21.2,26.5l11.9,105.1
					c0,0,15.7,105.5,26.1,105.9c10.4,0.4,10.1,17.1,10.1,17.1H190.5H153.9z M243.7,1473h-42.5l3,180.4h57.4L243.7,1473z
					 M82.7,1653.4h57.4l3-180.4h-42.5L82.7,1653.4z M221.5,1235.9h-20.3v172.2h36L221.5,1235.9z M107.2,1408.1h36v-172.2h-20.3
					L107.2,1408.1z M201.2,1041.3v177.4h18L201.2,1041.3z M143.2,774.4V568.8h-18L143.2,774.4z M219.2,569.8h-18v205.6L219.2,569.8z
					 M125.1,1218.8h18v-177.4L125.1,1218.8z"/>
			</g>
		</g>
	</g>
	<g id="Space_x5F_Needle_x5F_v._x5F_2.0_1_">
		<g>
			<defs>
				<rect id="SVGID_33_" x="2263.7" y="297.6" width="324" height="1392"/>
			</defs>
			<clipPath id="SVGID_34_">
				<use xlink:href="#SVGID_33_"  style="overflow:visible;"/>
			</clipPath>
			<g class="st20">
				<defs>
					<rect id="SVGID_35_" x="2263.7" y="297.6" width="324" height="1392"/>
				</defs>
				<clipPath id="SVGID_36_">
					<use xlink:href="#SVGID_35_"  style="overflow:visible;"/>
				</clipPath>
				<path class="st21" d="M2407.4,1688.5h-141.3c0,0-0.4-16.8,10.1-17.1c10.4-0.4,26.1-105.9,26.1-105.9l11.9-105.1
					c0,0-21.2-8.2-21.2-26.5c0-18.3,25.7-21.6,25.7-21.6l54.4-421.6c0,0,12.3-160.3-4.1-286.7c-16.4-126.4-19.4-140.5-19.4-140.5
					s-88-9.7-39.1-19l-3-20.9c0,0-85.4-6-14.5-16.4l20.1-8.6l-2.2-11.2c0,0-10.8-3.7,3.4-7.5c14.2-3.7,65.6-21.2,65.6-21.2
					s11.2-6-1.9-14.9c-13-8.9,8.2-12.3,8.2-12.3l3.4-7.5h24.7l1-14.9l3-1.9l4.8-102.5c0,0-2.2-6,1.9-6h1.6c4.1,0,1.9,6,1.9,6
					l4.8,102.5l3,1.9l1,14.9h24.7l3.4,7.5c0,0,21.2,3.4,8.2,12.3c-13,8.9-1.9,14.9-1.9,14.9s51.4,17.5,65.6,21.2
					c14.2,3.7,3.4,7.5,3.4,7.5l-2.2,11.2l20.1,8.6c70.8,10.4-14.5,16.4-14.5,16.4l-3,20.9c48.8,9.3-39.1,19-39.1,19
					s-3,14.2-19.4,140.5c-16.4,126.4-4.1,286.7-4.1,286.7l54.4,421.6c0,0,25.7,3.4,25.7,21.6c0,18.3-21.2,26.5-21.2,26.5l11.9,105.1
					c0,0,15.7,105.5,26.1,105.9c10.4,0.4,10.1,17.1,10.1,17.1H2444H2407.4z M2497.2,1473h-42.5l3,180.4h57.4L2497.2,1473z
					 M2336.2,1653.4h57.4l3-180.4H2354L2336.2,1653.4z M2475,1235.9h-20.3v172.2h36L2475,1235.9z M2360.7,1408.1h36v-172.2h-20.3
					L2360.7,1408.1z M2454.7,1041.3v177.4h18L2454.7,1041.3z M2396.7,774.4V568.8h-18L2396.7,774.4z M2472.7,569.8h-18v205.6
					L2472.7,569.8z M2378.6,1218.8h18v-177.4L2378.6,1218.8z"/>
				<path class="st22" d="M2407.4,1688.5h-141.3c0,0-0.4-16.8,10.1-17.1c10.4-0.4,26.1-105.9,26.1-105.9l11.9-105.1
					c0,0-21.2-8.2-21.2-26.5c0-18.3,25.7-21.6,25.7-21.6l54.4-421.6c0,0,12.3-160.3-4.1-286.7c-16.4-126.4-19.4-140.5-19.4-140.5
					s-88-9.7-39.1-19l-3-20.9c0,0-85.4-6-14.5-16.4l20.1-8.6l-2.2-11.2c0,0-10.8-3.7,3.4-7.5c14.2-3.7,65.6-21.2,65.6-21.2
					s11.2-6-1.9-14.9c-13-8.9,8.2-12.3,8.2-12.3l3.4-7.5h24.7l1-14.9l3-1.9l4.8-102.5c0,0-2.2-6,1.9-6h1.6c4.1,0,1.9,6,1.9,6
					l4.8,102.5l3,1.9l1,14.9h24.7l3.4,7.5c0,0,21.2,3.4,8.2,12.3c-13,8.9-1.9,14.9-1.9,14.9s51.4,17.5,65.6,21.2
					c14.2,3.7,3.4,7.5,3.4,7.5l-2.2,11.2l20.1,8.6c70.8,10.4-14.5,16.4-14.5,16.4l-3,20.9c48.8,9.3-39.1,19-39.1,19
					s-3,14.2-19.4,140.5c-16.4,126.4-4.1,286.7-4.1,286.7l54.4,421.6c0,0,25.7,3.4,25.7,21.6c0,18.3-21.2,26.5-21.2,26.5l11.9,105.1
					c0,0,15.7,105.5,26.1,105.9c10.4,0.4,10.1,17.1,10.1,17.1H2444H2407.4z M2497.2,1473h-42.5l3,180.4h57.4L2497.2,1473z
					 M2336.2,1653.4h57.4l3-180.4H2354L2336.2,1653.4z M2475,1235.9h-20.3v172.2h36L2475,1235.9z M2360.7,1408.1h36v-172.2h-20.3
					L2360.7,1408.1z M2454.7,1041.3v177.4h18L2454.7,1041.3z M2396.7,774.4V568.8h-18L2396.7,774.4z M2472.7,569.8h-18v205.6
					L2472.7,569.8z M2378.6,1218.8h18v-177.4L2378.6,1218.8z"/>
			</g>
		</g>
	</g>
</g>
<g id="Seats">
	<rect y="1689.5" width="2592" height="38.5"/>
	<path class="st23" d="M672.3,1873h-35c-49.2,0-89.5-40.3-89.5-89.5V1580c0-49.2,40.3-89.5,89.5-89.5h35c49.2,0,89.5,40.3,89.5,89.5
		v203.5C761.8,1832.7,721.5,1873,672.3,1873z"/>
	<path class="st23" d="M455.7,1873h-35c-49.2,0-89.5-40.3-89.5-89.5V1580c0-49.2,40.3-89.5,89.5-89.5h35c49.2,0,89.5,40.3,89.5,89.5
		v203.5C545.2,1832.7,505,1873,455.7,1873z"/>
	<path class="st23" d="M1103.1,1873h-35c-49.2,0-89.5-40.3-89.5-89.5V1580c0-49.2,40.3-89.5,89.5-89.5h35
		c49.2,0,89.5,40.3,89.5,89.5v203.5C1192.6,1832.7,1152.3,1873,1103.1,1873z"/>
	<path class="st23" d="M886.5,1873h-35c-49.2,0-89.5-40.3-89.5-89.5V1580c0-49.2,40.3-89.5,89.5-89.5h35c49.2,0,89.5,40.3,89.5,89.5
		v203.5C976,1832.7,935.8,1873,886.5,1873z"/>
	<path class="st23" d="M1533.7,1873h-35c-49.2,0-89.5-40.3-89.5-89.5V1580c0-49.2,40.3-89.5,89.5-89.5h35
		c49.2,0,89.5,40.3,89.5,89.5v203.5C1623.2,1832.7,1582.9,1873,1533.7,1873z"/>
	<path class="st23" d="M1317.1,1873h-35c-49.2,0-89.5-40.3-89.5-89.5V1580c0-49.2,40.3-89.5,89.5-89.5h35
		c49.2,0,89.5,40.3,89.5,89.5v203.5C1406.6,1832.7,1366.3,1873,1317.1,1873z"/>
	<path class="st23" d="M1964.5,1873h-35c-49.2,0-89.5-40.3-89.5-89.5V1580c0-49.2,40.3-89.5,89.5-89.5h35
		c49.2,0,89.5,40.3,89.5,89.5v203.5C2054,1832.7,2013.7,1873,1964.5,1873z"/>
	<path class="st23" d="M1747.9,1873h-35c-49.2,0-89.5-40.3-89.5-89.5V1580c0-49.2,40.3-89.5,89.5-89.5h35
		c49.2,0,89.5,40.3,89.5,89.5v203.5C1837.4,1832.7,1797.1,1873,1747.9,1873z"/>
	<path class="st23" d="M2178.5,1873h-35c-49.2,0-89.5-40.3-89.5-89.5V1580c0-49.2,40.3-89.5,89.5-89.5h35
		c49.2,0,89.5,40.3,89.5,89.5v203.5C2268,1832.7,2227.7,1873,2178.5,1873z"/>
</g>
<g id="Curtain">
	<g id="Curtain_1_">
		<g>
			<defs>
				<rect id="SVGID_37_" x="-66.3" y="0" width="2724.5" height="295"/>
			</defs>
			<clipPath id="SVGID_38_">
				<use xlink:href="#SVGID_37_"  style="overflow:visible;"/>
			</clipPath>
			<g class="st24">
				<defs>
					<rect id="SVGID_39_" x="-66.3" y="0" width="2724.5" height="295"/>
				</defs>
				<clipPath id="SVGID_40_">
					<use xlink:href="#SVGID_39_"  style="overflow:visible;"/>
				</clipPath>
				<g class="st25">
					<defs>
						<rect id="SVGID_41_" x="-65.7" y="0.6" width="2723.3" height="293.8"/>
					</defs>
					<clipPath id="SVGID_42_">
						<use xlink:href="#SVGID_41_"  style="overflow:visible;"/>
					</clipPath>
					<g class="st26">
						<defs>
							<rect id="SVGID_43_" x="-65.7" y="0.6" width="2723.3" height="293.8"/>
						</defs>
						<clipPath id="SVGID_44_">
							<use xlink:href="#SVGID_43_"  style="overflow:visible;"/>
						</clipPath>
						<path class="st27" d="M2657.6,0.6v293.8c0,0-291,0.9-464.5-22.2s-219.6-31.7-343.2-55.5c-123.6-23.8-188.4-44.2-238.1-59.5
							c-49.7-15.3-47.3-15.7-69.6-20.3c-22.2-4.6-33.5,2.1-41.9,4.8c-8.3,2.8-44.2,15.7-94.5,20.5c-50.2,4.8-61.2,5.1-110,5.1V0.6
							H2657.6z M2562.7,271.2v-61c0,0-218.8,3.2-642.7-53.2c-423.9-56.4-523.8-131.4-575.4-131c-51.5,0.4,214.4,103.5,555.2,178.5
							C2240.7,279.5,2562.7,271.2,2562.7,271.2 M2561.7,115.8V65.1c0,0-384-7.6-645.9-19.7c-261.9-12.1-434.4-41.1-432.9-27.3
							c1.5,13.8,332.9,52.3,539.4,70.7C2228.8,107.2,2561.7,115.8,2561.7,115.8"/>
						<path class="st27" d="M1296,0.6v166.8c-48.8-0.1-59.8-0.3-110-5.1s-86.1-17.8-94.5-20.5c-8.3-2.8-19.6-9.5-41.9-4.8
							c-22.3,4.6-19.8,5.1-69.6,20.3c-49.7,15.3-114.5,35.7-238.1,59.5c-123.6,23.8-169.7,32.4-343.2,55.5s-464.5,22.2-464.5,22.2
							V0.6H1296z M692.2,204.6c340.9-74.9,606.8-178.1,555.2-178.5c-51.6-0.4-151.5,74.5-575.4,131
							c-423.9,56.4-642.7,53.2-642.7,53.2v61C29.3,271.2,351.3,279.5,692.2,204.6 M1109.1,18.1c1.5-13.8-171,15.2-432.9,27.3
							S30.3,65.1,30.3,65.1v50.7c0,0,332.9-8.7,539.4-27.1C776.1,70.4,1107.6,31.8,1109.1,18.1"/>
					</g>
				</g>
			</g>
		</g>
	</g>
</g>
</svg>
